<svg xmlns="http://www.w3.org/2000/svg" width="94" height="24" fill="none"><path fill="#fff" d="M11.388 18.952c-.123 0-.245-.014-.368-.04-.654-.12-.981-.688-.981-1.703 0-1.643.845-4.441 2.535-8.394.654-1.496 1.138-2.952 1.452-4.368.122-.547.184-.981.184-1.302 0-.334-.014-.594-.041-.781-.068-.588-.293-.995-.675-1.222C12.813.782 12.05.6 11.204.6c-.886 0-1.82.214-2.8.641a15.71 15.71 0 0 0-2.781 1.563A12.504 12.504 0 0 0 3.27 5.008c-.708.842-1.24 1.73-1.594 2.665-.341.921-.512 1.756-.512 2.504 0 .307.028.601.082.881.218.922.627 1.61 1.227 2.064.6.454 1.308.681 2.126.681 1.145 0 2.215-.494 3.21-1.483 1.009-.988 1.513-2.036 1.513-3.145 0-.6-.122-1.035-.368-1.302-.245-.267-.497-.4-.756-.4-.26 0-.518.04-.777.12-.26.066-.389.06-.389-.02 0-.094.157-.207.47-.341.314-.147.641-.22.982-.22.34 0 .654.1.94.3.532.4.798 1.009.798 1.823 0 .815-.32 1.636-.961 2.464a7.37 7.37 0 0 1-2.33 1.984c-.928.494-1.848.74-2.761.74-.9 0-1.738-.32-2.515-.96-.777-.655-1.295-1.53-1.554-2.625A4.905 4.905 0 0 1 0 9.716c0-.841.211-1.756.634-2.744a9.388 9.388 0 0 1 1.82-2.745A12.345 12.345 0 0 1 5.05 2.104 15.685 15.685 0 0 1 7.994.68c1.036-.387 2.01-.58 2.924-.58.913 0 1.745.14 2.494.42 1.322.56 1.983 1.75 1.983 3.566 0 1.335-.49 2.991-1.471 4.968a31.127 31.127 0 0 0-1.636 3.967c-.709 2.096-1.063 3.552-1.063 4.367 0 .614.21.922.633.922.845 0 2.324-1.076 4.437-3.226 1.486-1.509 2.651-3.165 3.496-4.968.546-1.149.818-2.204.818-3.165 0-.508-.04-.862-.123-1.062a5.638 5.638 0 0 0-.163-.4.315.315 0 0 0-.164-.161c-.081-.054-.136-.08-.163-.08a4.23 4.23 0 0 0-.593-.12c-.205-.04-.327-.134-.368-.28-.027-.148.048-.235.225-.261l.388.04c.627.173 1.172.607 1.636 1.302.259.387.388.855.388 1.402 0 .534-.13 1.169-.388 1.903-.627 1.63-1.595 3.24-2.903 4.828-1.309 1.576-2.604 2.785-3.885 3.626-1.268.842-2.304 1.263-3.108 1.263Zm10.767-5.009c-.19.454-.286.962-.286 1.523 0 .374.082.674.245.901.177.214.423.32.736.32 1.24 0 2.365-1.141 3.374-3.425.095-.214.211-.307.347-.28.055.013.082.046.082.1 0 .053-.157.407-.47 1.062-.3.64-.607 1.162-.92 1.562-.695.935-1.554 1.402-2.576 1.402-.546 0-1.009-.173-1.39-.52-.382-.348-.573-.822-.573-1.423 0-.6.143-1.235.43-1.903a7.3 7.3 0 0 1 1.206-1.883c.504-.588 1.083-1.015 1.737-1.282.314-.134.614-.2.9-.2.286 0 .552.08.797.24.232.187.348.394.348.62 0 .802-.49 1.57-1.472 2.305-.3.227-.723.434-1.268.62-.545.174-.96.261-1.247.261Zm3.435-3.205c0-.267-.11-.4-.327-.4-.382 0-.961.46-1.738 1.382a10.282 10.282 0 0 0-1.227 1.883c.232 0 .566-.08 1.002-.24.45-.161.838-.375 1.165-.642.75-.627 1.125-1.289 1.125-1.983Zm-.714 12.62c-1.281 0-1.922-.513-1.922-1.542 0-.854.593-1.622 1.78-2.303 1.008-.575 2.296-1.116 3.863-1.623a22.27 22.27 0 0 0 1.575-.541c.354-1.015.531-2.124.531-3.326 0-.24-.013-.42-.04-.54-.382.76-.907 1.542-1.575 2.343-.79.962-1.574 1.336-2.351 1.122-.709-.294-1.063-.868-1.063-1.723 0-1.148.586-2.41 1.758-3.786.64-.748 1.39-1.222 2.249-1.422a2.5 2.5 0 0 1 .695-.1c.613 0 1.213.2 1.8.6.217.174.326.321.326.441s-.04.24-.122.36c-.082.108-.17.121-.266.04a.808.808 0 0 1-.164-.26c-.177-.494-.463-.74-.858-.74-.723 0-1.534.493-2.433 1.482-.505.56-.94 1.162-1.309 1.803-.45.801-.675 1.422-.675 1.863 0 .427.137.714.41.861.095.04.19.06.286.06.313 0 .702-.207 1.165-.62a7.213 7.213 0 0 0 1.308-1.603c.41-.655.668-1.162.777-1.523.11-.36.239-.587.389-.681.163-.094.34-.147.531-.16.191-.014.32-.047.389-.1.109.6.163 1.308.163 2.123 0 .801-.143 1.716-.429 2.745.627-.441 1.07-.835 1.33-1.182.272-.348.483-.661.633-.942.163-.28.307-.554.43-.821.122-.28.204-.461.245-.541.04-.08.109-.127.204-.14.096-.027.143.013.143.12a.62.62 0 0 1-.061.24c-.6 1.216-1.104 2.097-1.513 2.645-.395.534-.94.961-1.636 1.282-.327.908-.804 1.81-1.43 2.704a9.661 9.661 0 0 1-2.332 2.364c-.94.681-1.874 1.022-2.8 1.022Zm-1.492-1.161c0 .508.334.761 1.002.761.395 0 .838-.113 1.329-.34.504-.227.92-.461 1.247-.701.558-.441 1.172-1.096 1.84-1.964.504-.694.893-1.369 1.165-2.023l-.715.24c-2.127.721-3.626 1.363-4.498 1.923-.641.415-1.064.942-1.268 1.583-.068.2-.102.374-.102.521ZM58.026 1.803c0 1.162-.388 2.377-1.165 3.646-.763 1.269-1.826 2.377-3.19 3.326-1.349.935-2.746 1.522-4.19 1.763-.832 1.642-1.432 2.79-1.8 3.445l-.43.681c2.7.655 4.935 1.65 6.707 2.985.9.682 1.506 1.516 1.82 2.505.163.507.245.941.245 1.302 0 .36-.075.66-.225.901-.136.254-.3.428-.49.521-.192.094-.328.14-.41.14-.081 0-.122-.033-.122-.1s.075-.267.225-.6c.163-.321.245-.702.245-1.143 0-.44-.096-.928-.286-1.462-.191-.534-.546-1.029-1.063-1.483-.518-.44-1.24-.854-2.168-1.242-.913-.4-1.71-.68-2.392-.841a42.882 42.882 0 0 0-2.699-.581c-1.158 1.59-2.365 2.678-3.619 3.265-.75.361-1.417.541-2.003.541-.573 0-1.084-.113-1.534-.34-.777-.374-1.165-.942-1.165-1.703 0-.761.511-1.43 1.533-2.004 1.159-.667 2.727-1.001 4.703-1.001.709 0 1.35.053 1.922.16.613-.935 1.329-2.224 2.146-3.866h-.224c-.86 0-1.657-.14-2.392-.421-.736-.28-1.323-.661-1.759-1.142-.572-.628-.858-1.335-.858-2.123 0-.414.102-.862.306-1.343.218-.48.688-.968 1.41-1.462.737-.494 1.664-.868 2.782-1.122.177-.04.327-.06.45-.06.122 0 .197.033.224.1.027.067-.027.127-.163.18a2.182 2.182 0 0 1-.47.12 3.819 3.819 0 0 0-1.636.582c-.873.547-1.48 1.389-1.82 2.524a2.661 2.661 0 0 0-.123.781c0 .24.048.534.144.882.095.347.3.707.613 1.081.313.36.736.615 1.268.762.545.146 1.015.22 1.41.22.41 0 .784-.02 1.125-.06l1.738-4.287c1.2-3.019 2.63-4.875 4.293-5.57.436-.173.859-.26 1.268-.26.422 0 .818.134 1.186.4.381.254.586.568.613.942.014.16.02.314.02.461Zm-.858.02c0-.507-.239-.761-.716-.761-.695 0-1.54.594-2.535 1.783-.777.948-1.527 2.097-2.25 3.445a137.68 137.68 0 0 0-1.9 3.707c1.894-.414 3.598-1.43 5.11-3.045 1.527-1.63 2.29-3.34 2.29-5.129ZM45.84 15.446a9.585 9.585 0 0 0-2.065-.22c-.709 0-1.438.1-2.188.3-1.567.4-2.487.968-2.76 1.703-.054.133-.082.26-.082.38 0 .348.191.628.573.842.395.227.824.34 1.288.34.64 0 1.336-.173 2.085-.52 1.132-.535 2.181-1.476 3.149-2.825Zm11.1-6.21a.962.962 0 0 1-.634.24.687.687 0 0 1-.552-.24.724.724 0 0 1-.163-.582.968.968 0 0 1 .347-.58c.191-.16.402-.24.634-.24.232 0 .416.08.552.24a.64.64 0 0 1 .164.58.967.967 0 0 1-.348.581Zm-2.004 7.352c.26 0 .532-.127.818-.381.505-.494 1.145-1.503 1.922-3.025.096-.2.191-.26.286-.18.028.026.041.073.041.14 0 .053-.054.2-.163.44a28.25 28.25 0 0 1-.307.622c-.082.187-.252.494-.511.921a6.15 6.15 0 0 1-.675.962c-.559.628-1.09.941-1.595.941-.49 0-.845-.146-1.063-.44a1.608 1.608 0 0 1-.327-.982c0-.36.089-.755.266-1.182l1.309-3.265c.027-.08.04-.187.04-.32 0-.135-.081-.308-.245-.522l1.125-.02c.313 0 .497.06.552.18.054.107.013.28-.123.521l-1.636 3.747c-.232.494-.347.914-.347 1.262 0 .387.21.58.633.58ZM55.282 24c-.75 0-1.125-.367-1.125-1.102 0-1.055.702-3.205 2.106-6.45-.164-.268-.245-.488-.245-.662 0-.56.13-.935.388-1.122.19-.16.348-.24.47-.24.137 0 .225.007.266.02 1.554-3.432 2.951-6.284 4.191-8.554.246-.481.498-.835.757-1.062.259-.227.586-.34.981-.34.055 0 .191.02.41.06.217.04.38.053.49.04-.64.587-1.54 1.883-2.699 3.886a73.418 73.418 0 0 0-3.292 6.43c.314.375.532.876.655 1.503l.061.26h.061c.368 0 .757-.206 1.166-.62a7.095 7.095 0 0 0 1.002-1.302c.259-.454.47-.848.633-1.182.164-.348.266-.535.307-.561.04-.027.075-.034.102-.02a.14.14 0 0 1 .102.04c.028.013.041.046.041.1 0 .04-.013.087-.04.14-1.132 2.524-2.243 3.786-3.333 3.786.014.214.02.561.02 1.042 0 .494-.122 1.222-.368 2.184a7.041 7.041 0 0 1-1.247 2.584C56.57 23.62 55.95 24 55.282 24Zm-.02-1.102c0 .387.108.581.326.581.26 0 .614-.3 1.063-.901.464-.588.852-1.403 1.166-2.444.327-1.029.49-1.964.49-2.805v-.2h-.184c-.395 0-.729-.107-1.001-.321-1.24 3.072-1.86 5.102-1.86 6.09Zm2.882-6.15h.123c-.041-.574-.205-1.035-.491-1.382l-.45 1.001c.136.254.409.38.818.38Zm4.503-2.805c-.19.454-.286.962-.286 1.523 0 .374.081.674.245.901.177.214.422.32.736.32 1.24 0 2.365-1.141 3.374-3.425.095-.214.21-.307.347-.28.055.013.082.046.082.1 0 .053-.157.407-.47 1.062-.3.64-.607 1.162-.92 1.562-.695.935-1.554 1.402-2.576 1.402-.546 0-1.01-.173-1.39-.52-.383-.348-.573-.822-.573-1.423 0-.6.143-1.235.429-1.903a7.3 7.3 0 0 1 1.206-1.883c.505-.588 1.084-1.015 1.738-1.282.314-.134.614-.2.9-.2.286 0 .552.08.797.24.232.187.348.394.348.62 0 .802-.49 1.57-1.472 2.305-.3.227-.723.434-1.268.62-.545.174-.96.261-1.247.261Zm3.435-3.205c0-.267-.11-.4-.327-.4-.382 0-.961.46-1.738 1.382a10.282 10.282 0 0 0-1.227 1.883c.232 0 .566-.08 1.002-.24.45-.161.838-.375 1.165-.642.75-.627 1.125-1.289 1.125-1.983Zm2.455 5.91c.177.026.3.04.368.04.545 0 1.084-.314 1.615-.942.287-.347.798-1.222 1.534-2.624.027-.067.075-.1.143-.1.123-.014.184.033.184.14 0 .027-.034.107-.102.24-.055.12-.11.247-.164.381-.054.12-.143.3-.266.54-.122.241-.231.435-.327.582-.082.147-.19.327-.327.54-.136.214-.273.381-.409.502l-.43.44a1.945 1.945 0 0 1-.817.481c-.504.16-.995.174-1.472.04-.314.134-.593.2-.838.2-.968 0-1.554-.373-1.759-1.121a2.74 2.74 0 0 1-.061-.621c0-.254.082-.495.245-.722.178-.227.362-.347.552-.36a75.897 75.897 0 0 0 1.779-3.506c.545-1.135 1.179-1.703 1.901-1.703.191 0 .375.047.553.14.19.08.259.174.204.28-.04.108-.136.128-.286.06a.984.984 0 0 0-.389-.1.643.643 0 0 0-.286.06c-.463.215-.695.675-.695 1.383 0 .374.054.681.163.922.11.24.232.5.368.781.314.694.47 1.262.47 1.703 0 .44-.142.875-.429 1.302a3.769 3.769 0 0 1-1.022 1.042Zm-.695-.14c.6-.455.9-1.19.9-2.204 0-.414-.048-.982-.144-1.703-.095-.721-.143-1.209-.143-1.462 0-.254.007-.428.02-.521-1.035 2.03-1.676 3.265-1.921 3.706.286 0 .43.2.43.6 0 .789.286 1.316.858 1.584Zm-1.533-.541c0 .08.006.167.02.26.11.36.361.541.757.541.163 0 .3-.027.409-.08-.505-.307-.778-.808-.818-1.503-.246.24-.368.501-.368.782Zm5.19-.541c0-1.109.545-2.965 1.636-5.57H72.07c-.068 0-.115-.033-.143-.1a.398.398 0 0 1 .02-.22c.042-.08.096-.12.164-.12h1.227c.49-1.055.947-1.937 1.37-2.645.422-.708.81-1.182 1.165-1.422.355-.254.607-.38.757-.38.163 0 .28.013.347.04.314.146.47.453.47.92 0 .455-.156 1.01-.47 1.664-.313.654-.62 1.262-.92 1.823h.982c.068 0 .109.04.122.12.028.067.02.14-.02.22-.027.067-.075.1-.143.1h-1.186a14.609 14.609 0 0 1-2.72 3.306l-.47 2.043c-.04.174-.06.348-.06.521 0 .16.047.327.142.501.096.174.246.26.45.26.232 0 .49-.08.777-.24.654-.48 1.377-1.49 2.167-3.025.055-.12.116-.194.184-.22.082-.027.13-.007.143.06.014.053-.007.147-.061.28-.45.922-.804 1.576-1.063 1.963-.736 1.162-1.52 1.743-2.351 1.743-.423 0-.77-.153-1.043-.46-.273-.308-.41-.695-.41-1.162Zm4.11-6.01c.9-1.576 1.349-2.671 1.349-3.286 0-.267-.048-.4-.143-.4-.15 0-.382.213-.695.64-.3.428-.811 1.443-1.534 3.046h1.023Zm-.266.44h-.961c-.164.374-.532 1.262-1.104 2.665.736-.748 1.424-1.636 2.065-2.665ZM73.282 23.36c-.6 0-1.063-.127-1.39-.38-.328-.241-.491-.535-.491-.882s.102-.741.306-1.182c.355-.681.996-1.229 1.922-1.643.695-.32 1.616-.62 2.76-.901a61.262 61.262 0 0 0 2.209-.541c.49-.842 1.076-2.344 1.758-4.508-.79 1.363-1.452 2.317-1.983 2.865-.532.548-1.07.821-1.616.821-.736 0-1.165-.3-1.288-.901-.054-.094-.068-.234-.04-.42a3.2 3.2 0 0 0 .04-.401c.014-.08.062-.207.144-.381a5.93 5.93 0 0 0 .163-.4c.15-.308.28-.548.389-.722-.219 0-.28-.107-.184-.32l.368-.702c.463-.868.845-1.602 1.145-2.203.136-.28.402-.421.797-.421h1.247c-.027.027-.095.08-.204.16a1.67 1.67 0 0 0-.552.561c-.491.828-1.104 2.01-1.84 3.546-.3.628-.45 1.088-.45 1.382 0 .294.047.501.143.621.109.12.252.18.43.18.258 0 .62-.267 1.083-.8.968-1.11 2.038-2.852 3.21-5.23.15-.28.415-.42.797-.42h1.104c-.354.24-.634.547-.838.921-.205.361-.43.855-.675 1.483-.231.628-.531 1.462-.9 2.504a116.096 116.096 0 0 1-.817 2.344c1.281-.374 2.263-1.035 2.944-1.983.3-.414.73-1.149 1.288-2.204.096-.187.177-.26.245-.22.082.04.123.093.123.16s-.116.327-.348.781c-.218.44-.443.855-.674 1.242a7.873 7.873 0 0 1-.9 1.162c-.368.4-.777.715-1.226.942-.45.24-1.05.494-1.8.761-1.05 1.87-2.106 3.245-3.169 4.127-.995.801-2.072 1.202-3.23 1.202Zm-1.186-1.983c-.15.293-.225.56-.225.801 0 .254.096.447.286.58.191.134.43.201.716.201.79 0 1.635-.4 2.535-1.202.9-.788 1.69-1.636 2.372-2.544l.45-.741c-2.25.574-3.667.988-4.253 1.242-.872.374-1.5.928-1.881 1.663Zm13.298-8.214c-.014.053-.075.24-.184.56-.11.308-.205.609-.286.902-.069.28-.103.568-.103.862 0 .28.068.547.205.801.136.24.354.36.654.36.49 0 .968-.32 1.431-.96.464-.655.954-1.483 1.472-2.485.11-.187.212-.26.307-.22.068.053.082.127.04.22-.04.08-.129.267-.265.56a7.22 7.22 0 0 1-.286.602 22.73 22.73 0 0 1-.327.6c-.15.281-.287.495-.41.642-.108.134-.265.314-.47.54-.19.215-.374.375-.551.482-.478.294-.927.44-1.35.44-.422 0-.75-.086-.981-.26-.232-.187-.375-.38-.43-.581-.04-.214-.061-.4-.061-.56 0-.161.007-.368.02-.622.041-.427.123-.841.246-1.242.136-.4.211-.628.225-.681.313-1.109.756-2.317 1.329-3.626.586-1.309 1.076-2.29 1.472-2.945.409-.668.729-1.122.96-1.362.464-.481.92-.722 1.37-.722.314 0 .525.22.634.662.014.08.02.18.02.3 0 .454-.163 1.028-.49 1.723-1.172 2.55-2.57 4.554-4.191 6.01Zm.163-.641c.695-.695 1.384-1.57 2.065-2.625.682-1.055 1.18-1.95 1.493-2.684.327-.748.49-1.255.49-1.523 0-.267-.047-.4-.143-.4-.136 0-.395.267-.776.801-.382.521-.9 1.47-1.554 2.845a65.237 65.237 0 0 0-1.575 3.586Zm3.945 1.422c-.19.454-.286.962-.286 1.523 0 .374.082.674.245.901.177.214.423.32.736.32 1.24 0 2.365-1.141 3.374-3.425.095-.214.21-.307.347-.28.055.013.082.046.082.1 0 .053-.157.407-.47 1.062-.3.64-.607 1.162-.92 1.562-.695.935-1.554 1.402-2.576 1.402-.546 0-1.01-.173-1.39-.52-.382-.348-.573-.822-.573-1.423 0-.6.143-1.235.43-1.903a7.3 7.3 0 0 1 1.205-1.883c.505-.588 1.084-1.015 1.738-1.282.314-.134.614-.2.9-.2.286 0 .552.08.797.24.232.187.348.394.348.62 0 .802-.49 1.57-1.472 2.305-.3.227-.723.434-1.268.62-.545.174-.96.261-1.247.261Zm3.435-3.205c0-.267-.11-.4-.327-.4-.382 0-.961.46-1.738 1.382a10.282 10.282 0 0 0-1.227 1.883c.232 0 .566-.08 1.002-.24.45-.161.838-.375 1.165-.642.75-.627 1.125-1.289 1.125-1.983Z"/></svg>